<svg xmlns="http://www.w3.org/2000/svg" viewBox="0 0 512 512">
  <rect width="512" height="512" rx="80" fill="#000000"/>
  <defs>
    <linearGradient id="shadow" x1="0" y1="0" x2="1" y2="1">
      <stop offset="0%" stop-color="#8b0000"/>
      <stop offset="100%" stop-color="#6b0000"/>
    </linearGradient>
    <linearGradient id="main" x1="0" y1="0" x2="0.3" y2="1">
      <stop offset="0%" stop-color="#ff1a1a"/>
      <stop offset="50%" stop-color="#e50914"/>
      <stop offset="100%" stop-color="#c4070f"/>
    </linearGradient>
  </defs>
  <!-- Shadow layer for 3D depth -->
  <path d="M340,115 C340,115 345,100 310,88 C275,76 220,76 185,88 C150,100 130,125 130,155 C130,200 165,220 210,235 C255,250 310,265 310,310 C310,340 285,358 255,365 C225,372 185,368 160,355 C140,345 132,325 132,325 L132,410 C132,410 155,432 200,438 C245,444 295,438 330,418 C365,398 385,365 385,320 C385,270 345,245 300,228 C255,211 210,200 210,165 C210,140 235,125 260,122 C285,119 310,125 325,135 C335,142 340,155 340,155 Z" fill="url(#shadow)" transform="translate(5,4)"/>
  <!-- Main S shape -->
  <path d="M340,115 C340,115 345,100 310,88 C275,76 220,76 185,88 C150,100 130,125 130,155 C130,200 165,220 210,235 C255,250 310,265 310,310 C310,340 285,358 255,365 C225,372 185,368 160,355 C140,345 132,325 132,325 L132,410 C132,410 155,432 200,438 C245,444 295,438 330,418 C365,398 385,365 385,320 C385,270 345,245 300,228 C255,211 210,200 210,165 C210,140 235,125 260,122 C285,119 310,125 325,135 C335,142 340,155 340,155 Z" fill="url(#main)"/>
</svg>
